<svg width="35" height="35" viewBox="0 0 35 35" fill="none" xmlns="http://www.w3.org/2000/svg">
<path d="M15.2266 31.1611H19.9876" stroke="#3D3D3D" stroke-width="1.58701" stroke-linecap="round" stroke-linejoin="round"/>
<path d="M16.0234 33.542H19.1975" stroke="#3D3D3D" stroke-width="1.58701" stroke-linecap="round" stroke-linejoin="round"/>
<path d="M27.924 16.7626C27.9309 14.8601 27.3958 12.9939 26.3794 11.3763C25.363 9.75868 23.9062 8.45463 22.1747 7.61248C20.4433 6.77034 18.5067 6.42392 16.5853 6.61263C14.6639 6.80134 12.8348 7.51762 11.3062 8.67995C9.77755 9.84229 8.6107 11.404 7.93841 13.1875C7.26612 14.971 7.11537 16.9045 7.50331 18.7682C7.89126 20.6319 8.80233 22.3509 10.1329 23.7297C10.9512 24.5776 11.9079 25.2759 12.9582 25.7986C14.1239 26.3786 15.0296 27.4786 15.0296 28.7806V28.7806H20.1874V28.7806C20.1874 27.4791 21.0939 26.3801 22.2599 25.8018C23.6166 25.1289 24.8138 24.1641 25.7574 22.9684C27.1578 21.1936 27.92 19.0106 27.924 16.7626Z" stroke="#3D3D3D" stroke-width="1.58701" stroke-linecap="round" stroke-linejoin="round"/>
<path d="M17.3906 2.91699V0.729492" stroke="#3D3D3D" stroke-width="1.45833" stroke-linecap="round" stroke-linejoin="round"/>
<path d="M6.5625 4.12012L8.10979 5.66741" stroke="#3D3D3D" stroke-width="1.45833" stroke-linecap="round" stroke-linejoin="round"/>
<path d="M26.6719 5.66741L28.2192 4.12012" stroke="#3D3D3D" stroke-width="1.45833" stroke-linecap="round" stroke-linejoin="round"/>
</svg>
