<svg width="72" height="21" viewBox="0 0 72 21" fill="none" xmlns="http://www.w3.org/2000/svg">
<path d="M21.4458 5.97629C21.1143 5.82921 20.6817 5.68262 20.1495 5.53651C19.7485 5.42824 19.4319 5.32812 19.2005 5.23566C18.9691 5.14321 18.7761 5.01913 18.6218 4.86535C18.4752 4.70343 18.4019 4.49839 18.4019 4.25168C18.4019 3.88855 18.5217 3.6107 18.7607 3.41812C18.9998 3.22458 19.3088 3.12877 19.6867 3.12877C20.1035 3.12877 20.4393 3.23272 20.6937 3.44111C20.9486 3.6495 21.0875 3.90005 21.1105 4.19371H22.5692C22.5156 3.51441 22.2377 2.9817 21.7357 2.59606C21.2418 2.20227 20.6051 2.00586 19.8257 2.00586C19.2776 2.00586 18.7952 2.09832 18.3784 2.28371C17.9617 2.46911 17.6373 2.73498 17.4059 3.0823C17.1746 3.42962 17.0586 3.8349 17.0586 4.29767C17.0586 4.79876 17.1746 5.20069 17.4059 5.50154C17.6373 5.80239 17.9152 6.02611 18.2395 6.17318C18.571 6.31211 18.9993 6.45103 19.5243 6.58996C19.9411 6.69775 20.2654 6.79835 20.4968 6.89081C20.7359 6.98326 20.9328 7.11405 21.087 7.28459C21.2489 7.45418 21.3299 7.67407 21.3299 7.94425C21.3299 8.29157 21.2025 8.57709 20.9481 8.80081C20.6932 9.01686 20.3387 9.12513 19.8832 9.12513C19.4434 9.12513 19.0999 9.01303 18.8527 8.78931C18.6137 8.56511 18.4781 8.28007 18.4474 7.93276H17.0352C17.0352 8.396 17.1583 8.80081 17.4055 9.14813C17.6527 9.49544 17.9918 9.76515 18.4244 9.95869C18.857 10.1441 19.3428 10.2365 19.8832 10.2365C20.4542 10.2365 20.9481 10.1283 21.3649 9.91222C21.7893 9.68802 22.1098 9.39484 22.3259 9.03219C22.5501 8.66907 22.6617 8.28343 22.6617 7.87479C22.6617 7.36555 22.5419 6.96027 22.3029 6.65942C22.071 6.35043 21.7855 6.12288 21.4458 5.97629Z" fill="#C74741"/>
<path d="M32.5877 3.98617C32.1939 3.77778 31.7464 3.67383 31.2449 3.67383C30.7744 3.67383 30.3342 3.78976 29.9251 4.02114C29.5164 4.24439 29.2156 4.54954 29.0221 4.93566C28.806 4.52655 28.4975 4.21372 28.096 3.99815C27.6951 3.78162 27.2395 3.67383 26.7302 3.67383C26.3523 3.67383 25.9973 3.74664 25.6653 3.89372C25.3338 4.04031 25.0598 4.24438 24.8432 4.50739V3.77826H23.5234V10.1569H24.8432V6.59129C24.8432 6.01977 24.986 5.58431 25.2715 5.28298C25.5652 4.97399 25.9585 4.81973 26.4524 4.81973C26.9468 4.81973 27.3363 4.97351 27.6218 5.28298C27.9078 5.58383 28.05 6.01977 28.05 6.59129V10.1569H29.3584V6.59129C29.3584 6.01977 29.5011 5.58431 29.7866 5.28298C30.0803 4.97399 30.4736 4.81973 30.9675 4.81973C31.4619 4.81973 31.8514 4.97351 32.1369 5.28298C32.4229 5.58383 32.5652 6.01977 32.5652 6.59129V10.1569H33.8735V6.39439C33.8735 5.81569 33.7575 5.3213 33.5261 4.91267C33.3019 4.50308 32.9896 4.19456 32.5877 3.98617Z" fill="#C74741"/>
<path d="M39.8697 4.7038C39.6464 4.41014 39.3451 4.16726 38.9667 3.97468C38.5963 3.77395 38.1604 3.67383 37.6583 3.67383C37.1026 3.67383 36.5934 3.81276 36.1302 4.09061C35.6751 4.36032 35.3124 4.74213 35.0422 5.23651C34.7802 5.73042 34.6484 6.29762 34.6484 6.93812C34.6484 7.57814 34.7797 8.15349 35.0422 8.66321C35.3124 9.1643 35.6755 9.55809 36.1302 9.84408C36.5857 10.1219 37.0873 10.2609 37.6349 10.2609C38.1293 10.2609 38.569 10.1603 38.9547 9.96002C39.3408 9.75929 39.646 9.50874 39.8692 9.20742V10.1564H41.2005V3.77778H39.8692V4.7038H39.8697ZM39.5918 8.119C39.4146 8.44332 39.1789 8.68956 38.8857 8.8601C38.593 9.02969 38.2763 9.11496 37.9367 9.11496C37.6052 9.11496 37.2885 9.02969 36.9872 8.8601C36.6945 8.68237 36.4545 8.42751 36.2696 8.096C36.0923 7.76354 36.0032 7.37838 36.0032 6.9386C36.0032 6.49883 36.0923 6.12037 36.2696 5.8042C36.455 5.47987 36.6945 5.23699 36.9872 5.07507C37.2809 4.905 37.597 4.82021 37.9367 4.82021C38.2763 4.82021 38.593 4.90453 38.8857 5.07507C39.1794 5.24466 39.4146 5.49185 39.5918 5.81617C39.7772 6.14049 39.8697 6.5223 39.8697 6.96208C39.8697 7.40185 39.7772 7.78653 39.5918 8.119Z" fill="#C74741"/>
<path d="M43.4917 4.7038V3.77778H42.1719V10.1564H43.4917V6.7992C43.4917 6.15103 43.6229 5.69545 43.8855 5.43341C44.1556 5.1704 44.5494 5.03962 45.0663 5.03962H45.4022V3.67383C44.9624 3.67383 44.5801 3.76629 44.2563 3.95168C43.9396 4.12845 43.6847 4.37948 43.4917 4.7038Z" fill="#C74741"/>
<path d="M48.037 2.11523H46.7057V3.77804H45.9531V4.85448H46.7057V8.38514C46.7057 9.01031 46.8638 9.46158 47.1805 9.73943C47.4971 10.0173 47.9522 10.1562 48.5463 10.1562H49.5882V9.05678H48.7776C48.5075 9.05678 48.3144 9.00648 48.1989 8.90635C48.0907 8.79809 48.037 8.62467 48.037 8.38562V4.85496H49.5882V3.77852H48.037V2.11523Z" fill="#C74741"/>
<path d="M52.7598 3.52256C53.1766 3.28303 53.6513 3.16374 54.1836 3.16374C54.6698 3.16374 55.0981 3.2677 55.4684 3.47609C55.8387 3.68448 56.1281 4.00065 56.3364 4.4251H57.9226C57.6218 3.65286 57.1355 3.05931 56.4639 2.64253C55.8004 2.2176 55.0401 2.00586 54.1836 2.00586C53.4353 2.00586 52.7445 2.18311 52.1116 2.53857C51.4865 2.88589 50.9887 3.37213 50.6184 3.9973C50.2563 4.62247 50.0742 5.3286 50.0742 6.11569C50.0742 6.90278 50.2558 7.60891 50.6184 8.23408C50.9887 8.85925 51.4865 9.34885 52.1116 9.70431C52.7368 10.0516 53.4281 10.225 54.1836 10.225C55.0401 10.225 55.8009 10.0167 56.4639 9.59988C57.1355 9.1831 57.6213 8.58859 57.9226 7.8173H56.3364C56.1281 8.24175 55.8387 8.55841 55.4684 8.76632C55.0981 8.97471 54.6698 9.07866 54.1836 9.07866C53.6509 9.07866 53.1766 8.9589 52.7598 8.71985C52.343 8.47265 52.0154 8.12534 51.7758 7.6779C51.5444 7.22998 51.4285 6.70877 51.4285 6.11521C51.4285 5.5207 51.5444 4.99997 51.7758 4.55253C52.0154 4.10509 52.343 3.7616 52.7598 3.52256Z" fill="#C74741"/>
<path d="M59.6771 1.24219C59.438 1.24219 59.2373 1.32315 59.0749 1.48507C58.913 1.64699 58.832 1.84724 58.832 2.08724C58.832 2.32629 58.913 2.52702 59.0749 2.68942C59.2368 2.85134 59.438 2.9323 59.6771 2.9323C59.9085 2.9323 60.1054 2.85134 60.2673 2.68942C60.4292 2.5275 60.5102 2.32629 60.5102 2.08724C60.5102 1.84771 60.4292 1.64747 60.2673 1.48507C60.1054 1.32315 59.9085 1.24219 59.6771 1.24219Z" fill="#C74741"/>
<path d="M60.3276 3.77734H59.0078V10.156H60.3276V3.77734Z" fill="#C74741"/>
<path d="M69.8015 3.77804L67.938 8.63999L66.1434 3.77804H65.4182H64.6732H63.2519V2.11523H61.9206V3.77804H61.168V4.85448H61.9206V8.38513C61.9206 9.0103 62.0787 9.46157 62.3953 9.73942C62.7115 10.0173 63.1671 10.1562 63.7611 10.1562H64.803V9.05677H63.9925C63.7223 9.05677 63.5292 9.00647 63.4138 8.90635C63.3055 8.79808 63.2519 8.62466 63.2519 8.38561V4.85496H65.1044L67.1854 10.0527L65.8891 13.1551H67.2549L71.1678 3.77852H69.8015V3.77804Z" fill="#C74741"/>
<path d="M21.6641 20.4984L18.5503 16.8983V20.4984H17.2305V12.4531H18.5503V16.1227L21.6756 12.4531H23.3313L19.8351 16.4815L23.3892 20.4984H21.6641V20.4984Z" fill="#C74741"/>
<path d="M24.8255 13.2761C24.5865 13.2761 24.3858 13.1951 24.2234 13.0332C24.0614 12.8712 23.9805 12.67 23.9805 12.431C23.9805 12.1915 24.0614 11.9912 24.2234 11.8288C24.3853 11.6669 24.5865 11.5859 24.8255 11.5859C25.0569 11.5859 25.2538 11.6669 25.4157 11.8288C25.5776 11.9907 25.6586 12.191 25.6586 12.431C25.6586 12.67 25.5776 12.8708 25.4157 13.0332C25.2538 13.1946 25.0569 13.2761 24.8255 13.2761ZM25.4737 14.1211V20.4997H24.1539V14.1211H25.4737Z" fill="#C74741"/>
<path d="M28.3964 15.1967V18.7273C28.3964 18.9664 28.45 19.1398 28.5583 19.2481C28.6742 19.3482 28.8668 19.3985 29.137 19.3985H29.9476V20.4984H28.9056C28.3111 20.4984 27.8555 20.3595 27.5398 20.0816C27.2232 19.8038 27.0651 19.3525 27.0651 18.7273V15.1967H26.3125V14.1202H27.0651V12.4531H28.3964V14.1202H29.9476V15.1967H28.3964Z" fill="#C74741"/>
<path d="M30.4336 17.3034C30.4336 16.6471 30.5649 16.0722 30.8274 15.5783C31.0976 15.0763 31.4684 14.6906 31.9388 14.4209C32.4092 14.1507 32.9501 14.0156 33.5594 14.0156C34.3312 14.0156 34.9679 14.201 35.4694 14.5713C35.9787 14.9335 36.3222 15.4547 36.4999 16.134H35.0761C34.9602 15.8174 34.7753 15.5702 34.5204 15.3929C34.2656 15.2152 33.9456 15.1266 33.5594 15.1266C33.0195 15.1266 32.587 15.3191 32.2631 15.7053C31.9465 16.0832 31.7884 16.6159 31.7884 17.3029C31.7884 17.9894 31.9465 18.526 32.2631 18.9121C32.5874 19.2977 33.0195 19.4908 33.5594 19.4908C34.3235 19.4908 34.8289 19.155 35.0761 18.4838H36.4999C36.3145 19.132 35.9672 19.6489 35.4579 20.035C34.9487 20.413 34.3159 20.6022 33.5594 20.6022C32.9501 20.6022 32.4092 20.4666 31.9388 20.1969C31.4684 19.9191 31.0976 19.5329 30.8274 19.0395C30.5649 18.5379 30.4336 17.9592 30.4336 17.3034Z" fill="#C74741"/>
<path d="M40.768 14.017C41.2543 14.017 41.6864 14.121 42.0643 14.3294C42.4505 14.5378 42.7513 14.8463 42.9674 15.2554C43.1916 15.664 43.3032 16.1584 43.3032 16.7371V20.4996H41.9949V16.934C41.9949 16.3625 41.8526 15.927 41.5666 15.6257C41.2811 15.3167 40.8916 15.1624 40.3972 15.1624C39.9033 15.1624 39.51 15.3162 39.2163 15.6257C38.9308 15.9265 38.7881 16.3625 38.7881 16.934V20.4996H37.4688V11.9336H38.7886V14.8626C39.0128 14.5924 39.2944 14.384 39.6336 14.2374C39.9809 14.0898 40.3594 14.017 40.768 14.017Z" fill="#C74741"/>
<path d="M50.4268 17.153C50.4268 17.392 50.412 17.6081 50.3803 17.8011H45.5069C45.5457 18.3104 45.7349 18.719 46.0741 19.028C46.4138 19.3365 46.8305 19.4912 47.3244 19.4912C48.0349 19.4912 48.5365 19.1938 48.8292 18.5997H50.2529C50.0603 19.1861 49.7087 19.668 49.1995 20.047C48.6984 20.4173 48.0732 20.6027 47.324 20.6027C46.7146 20.6027 46.1666 20.4671 45.6803 20.1974C45.2022 19.9195 44.8238 19.5334 44.5459 19.04C44.2762 18.5379 44.1406 17.9592 44.1406 17.3034C44.1406 16.6471 44.2719 16.0722 44.5344 15.5783C44.8046 15.0763 45.1792 14.6906 45.6573 14.4209C46.1436 14.1507 46.6993 14.0156 47.3244 14.0156C47.9266 14.0156 48.4632 14.1464 48.9336 14.4094C49.4045 14.6715 49.771 15.0422 50.0335 15.5208C50.296 15.9913 50.4268 16.5355 50.4268 17.153ZM49.0495 16.7362C49.0419 16.2499 48.8684 15.86 48.5288 15.5668C48.1896 15.2731 47.769 15.127 47.267 15.127C46.8118 15.127 46.4219 15.2736 46.0976 15.5668C45.7733 15.8523 45.5807 16.2418 45.5189 16.7362H49.0495Z" fill="#C74741"/>
<path d="M54.5977 14.0156C55.0997 14.0156 55.5472 14.1196 55.9405 14.328C56.3424 14.5364 56.6548 14.8449 56.878 15.254C57.1022 15.6626 57.2138 16.157 57.2138 16.7357V20.4982H55.9055V16.9326C55.9055 16.3611 55.7632 15.9256 55.4772 15.6243C55.1917 15.3153 54.8022 15.161 54.3079 15.161C53.814 15.161 53.4207 15.3148 53.127 15.6243C52.8415 15.9251 52.6987 16.3611 52.6987 16.9326V20.4982H51.3789V14.1201H52.6987V14.8492C52.9152 14.5862 53.1888 14.3821 53.5208 14.2355C53.8609 14.0884 54.2202 14.0156 54.5977 14.0156Z" fill="#C74741"/>
<path d="M60.7481 20.6041C60.246 20.6041 59.7947 20.515 59.3938 20.3378C59 20.1524 58.6876 19.9052 58.4562 19.5967C58.2249 19.28 58.1008 18.9289 58.0859 18.5432H59.4517C59.4747 18.8129 59.6022 19.041 59.8335 19.2264C60.0726 19.4036 60.3696 19.4927 60.7251 19.4927C61.0954 19.4927 61.3809 19.4233 61.5816 19.2843C61.79 19.1373 61.894 18.9519 61.894 18.7286C61.894 18.4891 61.778 18.3119 61.5467 18.1959C61.3225 18.08 60.9636 17.953 60.4702 17.8141C59.9916 17.6828 59.6022 17.5554 59.3008 17.4323C59 17.3082 58.737 17.12 58.5137 16.8651C58.2972 16.6102 58.1894 16.2749 58.1894 15.8581C58.1894 15.5185 58.2895 15.21 58.4903 14.9321C58.6905 14.6461 58.9765 14.4229 59.3468 14.2605C59.7248 14.0985 60.1574 14.0176 60.6431 14.0176C61.3684 14.0176 61.9515 14.203 62.3912 14.5733C62.8387 14.9355 63.0777 15.4332 63.1089 16.0665H61.7891C61.7661 15.7805 61.6501 15.553 61.4417 15.3834C61.2334 15.2133 60.9517 15.1285 60.5967 15.1285C60.2494 15.1285 59.983 15.1941 59.7981 15.3254C59.6127 15.4562 59.5202 15.6301 59.5202 15.8461C59.5202 16.0157 59.5816 16.1585 59.7056 16.2744C59.8288 16.3904 59.9792 16.4828 60.1569 16.5523C60.3342 16.6136 60.5967 16.6946 60.944 16.7952C61.4072 16.9183 61.7852 17.0457 62.0784 17.177C62.3793 17.3001 62.6375 17.4855 62.854 17.7327C63.0701 17.9794 63.1817 18.3075 63.1898 18.7167C63.1898 19.0788 63.0892 19.4031 62.889 19.6891C62.6882 19.9747 62.4027 20.1984 62.0324 20.3608C61.6702 20.5232 61.2415 20.6041 60.7481 20.6041Z" fill="#C74741"/>
<path d="M12.6389 14.75C12.6389 17.9223 10.0673 20.4944 6.89453 20.4944V14.75H12.6389Z" fill="#C74741"/>
<path d="M12.6389 13.6018C12.6389 10.4295 10.0673 7.85742 6.89453 7.85742V13.6018H12.6389Z" fill="#C74741"/>
<path d="M0 6.70922C0 3.5369 2.57158 0.964844 5.74438 0.964844V6.70922H0V6.70922Z" fill="#C74741"/>
<path d="M0 7.85742C0 11.0297 2.57158 13.6018 5.74438 13.6018V7.85742H0Z" fill="#C74741"/>
</svg>
